<svg xmlns="http://www.w3.org/2000/svg" xmlns:svg="http://www.w3.org/2000/svg" xmlns:xlink="http://www.w3.org/1999/xlink" id="svg3081" width="512" height="512" version="1.1"><defs id="defs3083"><linearGradient id="linearGradient3919"><stop id="stop3921" offset="0" style="stop-color:#00a070;stop-opacity:1"/><stop id="stop3923" offset="1" style="stop-color:#11ffeb;stop-opacity:1"/></linearGradient><linearGradient id="linearGradient4336"><stop id="stop4338" offset="0" style="stop-color:#d5cfd3;stop-opacity:1"/><stop id="stop4340" offset="1" style="stop-color:#655961;stop-opacity:1"/></linearGradient><linearGradient id="linearGradient4115"><stop style="stop-color:#ddacd3;stop-opacity:1" id="stop4117" offset="0"/><stop style="stop-color:#d08ac1;stop-opacity:0" id="stop4119" offset="1"/></linearGradient><linearGradient id="linearGradient4074"><stop id="stop4076" offset="0" style="stop-color:#6f2d61;stop-opacity:1"/><stop id="stop4078" offset="1" style="stop-color:#c774b5;stop-opacity:0"/></linearGradient><linearGradient id="linearGradient4031"><stop style="stop-color:#9c3f88;stop-opacity:1" id="stop4033" offset="0"/><stop style="stop-color:#c774b5;stop-opacity:1" id="stop4035" offset="1"/></linearGradient><linearGradient id="linearGradient3926"><stop style="stop-color:#e9e6e8;stop-opacity:1" id="stop3928" offset="0"/><stop style="stop-color:#92838d;stop-opacity:1" id="stop3930" offset="1"/></linearGradient><radialGradient id="radialGradient3934" cx="112" cy="111.931" r="200.473" fx="112" fy="111.931" gradientTransform="matrix(1.6760324,0,0,1.5164103,-75.71563,-57.732819)" gradientUnits="userSpaceOnUse" xlink:href="#linearGradient3926"/><radialGradient id="radialGradient3934-5" cx="112" cy="111.931" r="200.473" fx="112" fy="111.931" gradientTransform="matrix(1.6760324,0,0,1.5164103,-75.71563,-57.732819)" gradientUnits="userSpaceOnUse" xlink:href="#linearGradient3926-7"/><linearGradient id="linearGradient3926-7"><stop style="stop-color:#655c62;stop-opacity:1" id="stop3928-4" offset="0"/><stop style="stop-color:#92838d;stop-opacity:0" id="stop3930-2" offset="1"/></linearGradient><radialGradient id="radialGradient3952" cx="252.181" cy="333.507" r="200.473" fx="252.181" fy="333.507" gradientTransform="matrix(0,-1.5164102,1.5164103,0,-57.732822,830.40935)" gradientUnits="userSpaceOnUse" xlink:href="#linearGradient3926-7"/><linearGradient id="linearGradient4037" x1="256" x2="256" y1="128.076" y2="384.076" gradientUnits="userSpaceOnUse" xlink:href="#linearGradient4031"/><linearGradient id="linearGradient4037-0" x1="256" x2="256" y1="128.076" y2="384.076" gradientUnits="userSpaceOnUse" xlink:href="#linearGradient4031-1"/><linearGradient id="linearGradient4031-1"><stop style="stop-color:#9c3f88;stop-opacity:1" id="stop4033-8" offset="0"/><stop style="stop-color:#c774b5;stop-opacity:1" id="stop4035-6" offset="1"/></linearGradient><linearGradient id="linearGradient4055" x1="256" x2="256" y1="128.076" y2="215.254" gradientUnits="userSpaceOnUse" xlink:href="#linearGradient4074"/><linearGradient id="linearGradient4055-4" x1="256" x2="256" y1="128.076" y2="215.254" gradientUnits="userSpaceOnUse" xlink:href="#linearGradient4074-7"/><linearGradient id="linearGradient4074-7"><stop id="stop4076-9" offset="0" style="stop-color:#6f2d61;stop-opacity:1"/><stop id="stop4078-2" offset="1" style="stop-color:#c774b5;stop-opacity:0"/></linearGradient><linearGradient id="linearGradient4096" x1="256" x2="256" y1="383.076" y2="308.254" gradientUnits="userSpaceOnUse" xlink:href="#linearGradient4115"/><linearGradient id="linearGradient4135" x1="256" x2="256" y1="113.08" y2="401.08" gradientUnits="userSpaceOnUse" xlink:href="#linearGradient4031"/><linearGradient id="linearGradient4135-0" x1="256" x2="256" y1="113.08" y2="401.08" gradientUnits="userSpaceOnUse" xlink:href="#linearGradient4031-6"/><linearGradient id="linearGradient4031-6"><stop style="stop-color:#9c3f88;stop-opacity:1" id="stop4033-3" offset="0"/><stop style="stop-color:#c774b5;stop-opacity:1" id="stop4035-1" offset="1"/></linearGradient><linearGradient id="linearGradient4135-1" x1="256" x2="256" y1="113.08" y2="401.08" gradientUnits="userSpaceOnUse" xlink:href="#linearGradient4031-0"/><linearGradient id="linearGradient4031-0"><stop style="stop-color:#9c3f88;stop-opacity:1" id="stop4033-6" offset="0"/><stop style="stop-color:#c774b5;stop-opacity:1" id="stop4035-3" offset="1"/></linearGradient><linearGradient id="linearGradient4211" x1="256" x2="256" y1="113.08" y2="401.08" gradientUnits="userSpaceOnUse" xlink:href="#linearGradient4031-0"/><clipPath id="clipPath4230" clipPathUnits="userSpaceOnUse"><path id="path4232" d="m 160.14173,317.78028 0,82.26743 86.79213,0 c 68.28192,0 104.89098,-33.7297 104.89098,-79.79941 0,-67.04789 -92.13953,-99.13228 -92.13953,-117.23108 0,-6.99273 4.52475,-10.28343 25.91425,-10.28343 l 54.70784,0 0,-80.62208 -82.26743,0 c -50.59441,0 -97.07556,18.09889 -97.07556,78.97673 0,61.28918 87.20346,93.7849 87.20346,113.11771 0,11.10611 -6.99275,13.57413 -33.3183,13.57413 l -54.70784,0" style="font-size:144px;font-style:normal;font-variant:normal;font-weight:900;font-stretch:normal;text-align:start;line-height:125%;letter-spacing:0;word-spacing:0;writing-mode:lr-tb;text-anchor:start;fill:url(#linearGradient4234);fill-opacity:1;stroke:none;font-family:Bauhaus Std;-inkscape-font-specification:Bauhaus Std Heavy"/></clipPath><linearGradient id="linearGradient4234" x1="256" x2="256" y1="113.08" y2="401.08" gradientUnits="userSpaceOnUse" xlink:href="#linearGradient4031-0"/><clipPath id="clipPath4236" clipPathUnits="userSpaceOnUse"><path id="path4238" d="m 160.14173,317.78028 0,82.26743 86.79213,0 c 68.28192,0 104.89098,-33.7297 104.89098,-79.79941 0,-67.04789 -92.13953,-99.13228 -92.13953,-117.23108 0,-6.99273 4.52475,-10.28343 25.91425,-10.28343 l 54.70784,0 0,-80.62208 -82.26743,0 c -50.59441,0 -97.07556,18.09889 -97.07556,78.97673 0,61.28918 87.20346,93.7849 87.20346,113.11771 0,11.10611 -6.99275,13.57413 -33.3183,13.57413 l -54.70784,0" style="font-size:144px;font-style:normal;font-variant:normal;font-weight:900;font-stretch:normal;text-align:start;line-height:125%;letter-spacing:0;word-spacing:0;writing-mode:lr-tb;text-anchor:start;fill:url(#linearGradient4240);fill-opacity:1;stroke:none;font-family:Bauhaus Std;-inkscape-font-specification:Bauhaus Std Heavy"/></clipPath><linearGradient id="linearGradient4240" x1="256" x2="256" y1="113.08" y2="401.08" gradientUnits="userSpaceOnUse" xlink:href="#linearGradient4031-0"/><linearGradient id="linearGradient4135-4" x1="256" x2="256" y1="113.08" y2="401.08" gradientUnits="userSpaceOnUse" xlink:href="#linearGradient4031-2"/><linearGradient id="linearGradient4031-2"><stop style="stop-color:#9c3f88;stop-opacity:1" id="stop4033-1" offset="0"/><stop style="stop-color:#c774b5;stop-opacity:1" id="stop4035-60" offset="1"/></linearGradient><clipPath id="clipPath4236-6" clipPathUnits="userSpaceOnUse"><path id="path4238-6" d="m 160.14173,317.78028 0,82.26743 86.79213,0 c 68.28192,0 104.89098,-33.7297 104.89098,-79.79941 0,-67.04789 -92.13953,-99.13228 -92.13953,-117.23108 0,-6.99273 4.52475,-10.28343 25.91425,-10.28343 l 54.70784,0 0,-80.62208 -82.26743,0 c -50.59441,0 -97.07556,18.09889 -97.07556,78.97673 0,61.28918 87.20346,93.7849 87.20346,113.11771 0,11.10611 -6.99275,13.57413 -33.3183,13.57413 l -54.70784,0" style="font-size:144px;font-style:normal;font-variant:normal;font-weight:900;font-stretch:normal;text-align:start;line-height:125%;letter-spacing:0;word-spacing:0;writing-mode:lr-tb;text-anchor:start;fill:url(#linearGradient4240);fill-opacity:1;stroke:none;font-family:Bauhaus Std;-inkscape-font-specification:Bauhaus Std Heavy"/></clipPath><linearGradient id="linearGradient4135-7" x1="256" x2="256" y1="113.08" y2="401.08" gradientUnits="userSpaceOnUse" xlink:href="#linearGradient4031-8"/><linearGradient id="linearGradient4031-8"><stop style="stop-color:#9c3f88;stop-opacity:1" id="stop4033-5" offset="0"/><stop style="stop-color:#c774b5;stop-opacity:1" id="stop4035-4" offset="1"/></linearGradient><clipPath id="clipPath4236-0" clipPathUnits="userSpaceOnUse"><path id="path4238-0" d="m 160.14173,317.78028 0,82.26743 86.79213,0 c 68.28192,0 104.89098,-33.7297 104.89098,-79.79941 0,-67.04789 -92.13953,-99.13228 -92.13953,-117.23108 0,-6.99273 4.52475,-10.28343 25.91425,-10.28343 l 54.70784,0 0,-80.62208 -82.26743,0 c -50.59441,0 -97.07556,18.09889 -97.07556,78.97673 0,61.28918 87.20346,93.7849 87.20346,113.11771 0,11.10611 -6.99275,13.57413 -33.3183,13.57413 l -54.70784,0" style="font-size:144px;font-style:normal;font-variant:normal;font-weight:900;font-stretch:normal;text-align:start;line-height:125%;letter-spacing:0;word-spacing:0;writing-mode:lr-tb;text-anchor:start;fill:url(#linearGradient4240);fill-opacity:1;stroke:none;font-family:Bauhaus Std;-inkscape-font-specification:Bauhaus Std Heavy"/></clipPath><linearGradient id="linearGradient4038" x1="260.031" x2="260.031" y1="92.121" y2="419.879" gradientUnits="userSpaceOnUse" xlink:href="#linearGradient3919"/><linearGradient id="linearGradient4038-6" x1="260.031" x2="260.031" y1="48" y2="464.001" gradientUnits="userSpaceOnUse" xlink:href="#linearGradient4031-3"/><linearGradient id="linearGradient4031-3"><stop style="stop-color:#9c3f88;stop-opacity:1" id="stop4033-2" offset="0"/><stop style="stop-color:#c774b5;stop-opacity:1" id="stop4035-43" offset="1"/></linearGradient><linearGradient id="linearGradient4038-1" x1="260.031" x2="260.031" y1="48" y2="464.001" gradientUnits="userSpaceOnUse" xlink:href="#linearGradient4031-9"/><linearGradient id="linearGradient4031-9"><stop style="stop-color:#9c3f88;stop-opacity:1" id="stop4033-9" offset="0"/><stop style="stop-color:#c774b5;stop-opacity:1" id="stop4035-61" offset="1"/></linearGradient><linearGradient id="linearGradient4125" x1="260.031" x2="260.031" y1="48" y2="464.001" gradientUnits="userSpaceOnUse" xlink:href="#linearGradient4031-9"/><clipPath id="clipPath4127" clipPathUnits="userSpaceOnUse"><path style="fill:url(#linearGradient4131);fill-opacity:1;stroke:none" id="path4129" d="m 240,48 0,81 c -52.45501,6.5377 -95.05053,44.80985 -107.96875,95 l 33.1875,0 c 13.61057,-36.22794 49.64746,-64.48252 89.03125,-64.21875 0.95497,-0.0253 1.92176,-0.0369 2.875,-0.0312 14.29865,0.0853 28.35374,3.63533 41.09375,10 22.94737,10.32987 39.98645,30.74431 48.3125,54.25 l 33.4375,0 C 367.05053,173.80985 324.45501,135.5377 272,129 l 0,-81 -32,0 z M 132.03125,288 C 144.94947,338.19015 187.54499,376.4623 240,383 l 0,81 32,0 0,-81 c 52.45501,-6.5377 95.05053,-44.80985 107.96875,-95 L 347,288 c -12.9362,38.16182 -52.91943,65.60507 -93.34375,64.1875 -39.35846,0.19888 -75.06281,-27.91764 -88.375,-64.1875 l -33.25,0 z"/></clipPath><linearGradient id="linearGradient4131" x1="260.031" x2="260.031" y1="48" y2="464.001" gradientUnits="userSpaceOnUse" xlink:href="#linearGradient4031-9"/><linearGradient id="linearGradient4038-16" x1="260.031" x2="260.031" y1="48" y2="464.001" gradientUnits="userSpaceOnUse" xlink:href="#linearGradient4031-5"/><linearGradient id="linearGradient4031-5"><stop style="stop-color:#9c3f88;stop-opacity:1" id="stop4033-52" offset="0"/><stop style="stop-color:#c774b5;stop-opacity:1" id="stop4035-2" offset="1"/></linearGradient><clipPath id="clipPath4127-1" clipPathUnits="userSpaceOnUse"><path style="fill:url(#linearGradient4131);fill-opacity:1;stroke:none" id="path4129-2" d="m 240,48 0,81 c -52.45501,6.5377 -95.05053,44.80985 -107.96875,95 l 33.1875,0 c 13.61057,-36.22794 49.64746,-64.48252 89.03125,-64.21875 0.95497,-0.0253 1.92176,-0.0369 2.875,-0.0312 14.29865,0.0853 28.35374,3.63533 41.09375,10 22.94737,10.32987 39.98645,30.74431 48.3125,54.25 l 33.4375,0 C 367.05053,173.80985 324.45501,135.5377 272,129 l 0,-81 -32,0 z M 132.03125,288 C 144.94947,338.19015 187.54499,376.4623 240,383 l 0,81 32,0 0,-81 c 52.45501,-6.5377 95.05053,-44.80985 107.96875,-95 L 347,288 c -12.9362,38.16182 -52.91943,65.60507 -93.34375,64.1875 -39.35846,0.19888 -75.06281,-27.91764 -88.375,-64.1875 l -33.25,0 z"/></clipPath><radialGradient id="radialGradient4046" cx="128" cy="112" r="208" fx="128" fy="112" gradientTransform="matrix(2.0249389,0,0,1.1320755,-148.09783,-29.283039)" gradientUnits="userSpaceOnUse" xlink:href="#linearGradient3926"/><radialGradient id="radialGradient4073" cx="416" cy="432" r="208" fx="416" fy="432" gradientTransform="matrix(1.7416545,9.1666025e-8,-8.7082727e-8,1.6545718,-287.39619,-255.00151)" gradientUnits="userSpaceOnUse" xlink:href="#linearGradient3926-7"/><linearGradient id="linearGradient4081" x1="256" x2="256" y1="176" y2="336" gradientUnits="userSpaceOnUse" xlink:href="#linearGradient3919"/><linearGradient id="linearGradient4081-6" x1="256" x2="256" y1="176" y2="336" gradientUnits="userSpaceOnUse" xlink:href="#linearGradient4031-81"/><linearGradient id="linearGradient4031-81"><stop style="stop-color:#9c3f88;stop-opacity:1" id="stop4033-68" offset="0"/><stop style="stop-color:#c774b5;stop-opacity:1" id="stop4035-25" offset="1"/></linearGradient><linearGradient id="linearGradient4081-68" x1="256" x2="256" y1="176" y2="336" gradientUnits="userSpaceOnUse" xlink:href="#linearGradient4031-59"/><linearGradient id="linearGradient4031-59"><stop style="stop-color:#9c3f88;stop-opacity:1" id="stop4033-85" offset="0"/><stop style="stop-color:#c774b5;stop-opacity:1" id="stop4035-23" offset="1"/></linearGradient><linearGradient id="linearGradient4149" x1="256" x2="256" y1="176" y2="336" gradientUnits="userSpaceOnUse" xlink:href="#linearGradient4031-59"/><linearGradient id="linearGradient4172" x1="256" x2="256" y1="176" y2="336" gradientUnits="userSpaceOnUse" xlink:href="#linearGradient4031-59"/><clipPath id="clipPath4174" clipPathUnits="userSpaceOnUse"><path style="fill:url(#linearGradient4178);fill-opacity:1;stroke:none" id="path4176" d="m 256,176 c -44.18278,0 -80,35.64044 -80,80 0,0 -0.53033,7.51472 1.76777,16 l 122.85723,0 c -3.3167,9.26456 -9.26562,17.57666 -17.34375,23.125 -18.58481,14.67263 -46.73117,9.33733 -62.5625,-7.125 l -38.03125,0 c 12.35038,28.24167 40.51668,48 73.3125,48 44.18278,0 80,-35.81722 80,-80 0,0 0,-8.22183 -1.59099,-16 L 211.5,240 c 6.91612,-17.48162 23.43148,-31.64803 42.625,-31.8125 0.96047,-0.0463 1.91732,-0.0507 2.875,-0.0312 12.86627,0.2609 25.35078,6.36236 34.03125,15.84375 l 38.28125,0 C 316.96212,195.75833 288.79582,176 256,176 z"/></clipPath><linearGradient id="linearGradient4178" x1="256" x2="256" y1="176" y2="336" gradientUnits="userSpaceOnUse" xlink:href="#linearGradient4031-59"/><radialGradient id="radialGradient4207" cx="256" cy="32" r="208" fx="256" fy="32" gradientTransform="matrix(1.1320755,0,0,1.1320755,-33.811321,-20.226435)" gradientUnits="userSpaceOnUse" xlink:href="#linearGradient3926"/><radialGradient id="radialGradient4073-9" cx="416" cy="432" r="208" fx="416" fy="432" gradientTransform="matrix(1.5384615,8.0971655e-8,-7.6923076e-8,1.4615385,-223.99997,-199.38465)" gradientUnits="userSpaceOnUse" xlink:href="#linearGradient3926-7-7"/><linearGradient id="linearGradient3926-7-7"><stop style="stop-color:#655c62;stop-opacity:1" id="stop3928-4-0" offset="0"/><stop style="stop-color:#92838d;stop-opacity:0" id="stop3930-2-6" offset="1"/></linearGradient><linearGradient id="linearGradient4334" x1="259.961" x2="259.961" y1="51.961" y2="460.175" gradientTransform="matrix(1.1320755,0,0,1.1320755,-33.811321,-29.283039)" gradientUnits="userSpaceOnUse" xlink:href="#linearGradient4336"/><linearGradient id="linearGradient4081-5" x1="256" x2="256" y1="176" y2="336" gradientUnits="userSpaceOnUse" xlink:href="#linearGradient4031-22"/><linearGradient id="linearGradient4031-22"><stop style="stop-color:#9c3f88;stop-opacity:1" id="stop4033-0" offset="0"/><stop style="stop-color:#c774b5;stop-opacity:1" id="stop4035-19" offset="1"/></linearGradient><clipPath id="clipPath4174-2" clipPathUnits="userSpaceOnUse"><path style="fill:url(#linearGradient4178);fill-opacity:1;stroke:none" id="path4176-1" d="m 256,176 c -44.18278,0 -80,35.64044 -80,80 0,0 -0.53033,7.51472 1.76777,16 l 122.85723,0 c -3.3167,9.26456 -9.26562,17.57666 -17.34375,23.125 -18.58481,14.67263 -46.73117,9.33733 -62.5625,-7.125 l -38.03125,0 c 12.35038,28.24167 40.51668,48 73.3125,48 44.18278,0 80,-35.81722 80,-80 0,0 0,-8.22183 -1.59099,-16 L 211.5,240 c 6.91612,-17.48162 23.43148,-31.64803 42.625,-31.8125 0.96047,-0.0463 1.91732,-0.0507 2.875,-0.0312 12.86627,0.2609 25.35078,6.36236 34.03125,15.84375 l 38.28125,0 C 316.96212,195.75833 288.79582,176 256,176 z"/></clipPath><linearGradient id="linearGradient3149" x1="260.031" x2="260.031" y1="48" y2="464.001" gradientUnits="userSpaceOnUse" xlink:href="#linearGradient4031-9"/><linearGradient id="linearGradient4038-4" x1="260.031" x2="260.031" y1="92.121" y2="419.879" gradientUnits="userSpaceOnUse" xlink:href="#linearGradient3919-2"/><linearGradient id="linearGradient3919-2"><stop id="stop3921-4" offset="0" style="stop-color:#00a0a0;stop-opacity:1"/><stop id="stop3923-5" offset="1" style="stop-color:#11e0ff;stop-opacity:1"/></linearGradient><linearGradient id="linearGradient3991" x1="260.031" x2="260.031" y1="48" y2="464.001" gradientTransform="matrix(1.2692308,0,0,1.2692308,-68.923085,-68.923085)" gradientUnits="userSpaceOnUse" xlink:href="#linearGradient4031-9"/><filter id="filter4013"><feGaussianBlur id="feGaussianBlur4015" stdDeviation="4.318"/></filter><linearGradient id="linearGradient4038-66" x1="260.031" x2="260.031" y1="92.121" y2="419.879" gradientUnits="userSpaceOnUse" xlink:href="#linearGradient3919-1"/><linearGradient id="linearGradient3919-1"><stop id="stop3921-7" offset="0" style="stop-color:#00a0a0;stop-opacity:1"/><stop id="stop3923-8" offset="1" style="stop-color:#11e0ff;stop-opacity:1"/></linearGradient><clipPath id="clipPath4127-2" clipPathUnits="userSpaceOnUse"><path style="fill:url(#linearGradient4131);fill-opacity:1;stroke:none" id="path4129-9" d="m 240,48 0,81 c -52.45501,6.5377 -95.05053,44.80985 -107.96875,95 l 33.1875,0 c 13.61057,-36.22794 49.64746,-64.48252 89.03125,-64.21875 0.95497,-0.0253 1.92176,-0.0369 2.875,-0.0312 14.29865,0.0853 28.35374,3.63533 41.09375,10 22.94737,10.32987 39.98645,30.74431 48.3125,54.25 l 33.4375,0 C 367.05053,173.80985 324.45501,135.5377 272,129 l 0,-81 -32,0 z M 132.03125,288 C 144.94947,338.19015 187.54499,376.4623 240,383 l 0,81 32,0 0,-81 c 52.45501,-6.5377 95.05053,-44.80985 107.96875,-95 L 347,288 c -12.9362,38.16182 -52.91943,65.60507 -93.34375,64.1875 -39.35846,0.19888 -75.06281,-27.91764 -88.375,-64.1875 l -33.25,0 z"/></clipPath><linearGradient id="linearGradient4034" x1="260.031" x2="260.031" y1="92.121" y2="419.879" gradientUnits="userSpaceOnUse" xlink:href="#linearGradient3919-1"/><clipPath id="clipPath4057" clipPathUnits="userSpaceOnUse"><path style="fill:url(#linearGradient4061);fill-opacity:1;stroke:none" id="path4059" d="M 240,92.121216 240,129 c -52.45501,6.5377 -95.05053,44.80985 -107.96875,95 l 33.1875,0 c 13.61057,-36.22794 49.64746,-64.48252 89.03125,-64.21875 0.95497,-0.0253 1.92176,-0.0369 2.875,-0.0312 14.29865,0.0853 28.35374,3.63533 41.09375,10 22.94737,10.32987 39.98645,30.74431 48.3125,54.25 l 33.4375,0 C 367.05053,173.80985 324.45501,135.5377 272,129 l 0,-36.878784 z M 132.03125,288 C 144.94947,338.19015 187.54499,376.4623 240,383 l 0,36.87878 32,0 L 272,383 c 52.45501,-6.5377 95.05053,-44.80985 107.96875,-95 L 347,288 c -12.9362,38.16182 -52.91943,65.60507 -93.34375,64.1875 -39.35846,0.19888 -75.06281,-27.91764 -88.375,-64.1875 z" clip-path="url(#clipPath4127-2)" transform="translate(0,-2.3633117)"/></clipPath><linearGradient id="linearGradient4061" x1="260.031" x2="260.031" y1="92.121" y2="419.879" gradientUnits="userSpaceOnUse" xlink:href="#linearGradient3919-1"/><clipPath id="clipPath4063" clipPathUnits="userSpaceOnUse"><path style="fill:url(#linearGradient4067);fill-opacity:1;stroke:none" id="path4065" d="M 240,92.121216 240,129 c -52.45501,6.5377 -95.05053,44.80985 -107.96875,95 l 33.1875,0 c 13.61057,-36.22794 49.64746,-64.48252 89.03125,-64.21875 0.95497,-0.0253 1.92176,-0.0369 2.875,-0.0312 14.29865,0.0853 28.35374,3.63533 41.09375,10 22.94737,10.32987 39.98645,30.74431 48.3125,54.25 l 33.4375,0 C 367.05053,173.80985 324.45501,135.5377 272,129 l 0,-36.878784 z M 132.03125,288 C 144.94947,338.19015 187.54499,376.4623 240,383 l 0,36.87878 32,0 L 272,383 c 52.45501,-6.5377 95.05053,-44.80985 107.96875,-95 L 347,288 c -12.9362,38.16182 -52.91943,65.60507 -93.34375,64.1875 -39.35846,0.19888 -75.06281,-27.91764 -88.375,-64.1875 z" clip-path="url(#clipPath4127-2)"/></clipPath><linearGradient id="linearGradient4067" x1="260.031" x2="260.031" y1="92.121" y2="419.879" gradientUnits="userSpaceOnUse" xlink:href="#linearGradient3919-1"/><linearGradient id="linearGradient4070" x1="256" x2="256" y1="176" y2="336" gradientUnits="userSpaceOnUse" xlink:href="#linearGradient4031-59"/><linearGradient id="linearGradient4038-8" x1="260.031" x2="260.031" y1="92.121" y2="419.879" gradientUnits="userSpaceOnUse" xlink:href="#linearGradient3919-28"/><linearGradient id="linearGradient3919-28"><stop id="stop3921-5" offset="0" style="stop-color:#00a0a0;stop-opacity:1"/><stop id="stop3923-4" offset="1" style="stop-color:#11e0ff;stop-opacity:1"/></linearGradient><clipPath id="clipPath4063-3" clipPathUnits="userSpaceOnUse"><path style="fill:url(#linearGradient4067);fill-opacity:1;stroke:none" id="path4065-9" d="M 240,92.121216 240,129 c -52.45501,6.5377 -95.05053,44.80985 -107.96875,95 l 33.1875,0 c 13.61057,-36.22794 49.64746,-64.48252 89.03125,-64.21875 0.95497,-0.0253 1.92176,-0.0369 2.875,-0.0312 14.29865,0.0853 28.35374,3.63533 41.09375,10 22.94737,10.32987 39.98645,30.74431 48.3125,54.25 l 33.4375,0 C 367.05053,173.80985 324.45501,135.5377 272,129 l 0,-36.878784 z M 132.03125,288 C 144.94947,338.19015 187.54499,376.4623 240,383 l 0,36.87878 32,0 L 272,383 c 52.45501,-6.5377 95.05053,-44.80985 107.96875,-95 L 347,288 c -12.9362,38.16182 -52.91943,65.60507 -93.34375,64.1875 -39.35846,0.19888 -75.06281,-27.91764 -88.375,-64.1875 z" clip-path="url(#clipPath4127-2)"/></clipPath><linearGradient id="linearGradient4334-3" x1="259.961" x2="259.961" y1="51.961" y2="460.175" gradientUnits="userSpaceOnUse" xlink:href="#linearGradient4336-3"/><linearGradient id="linearGradient4336-3"><stop id="stop4338-2" offset="0" style="stop-color:#d5cfd3;stop-opacity:1"/><stop id="stop4340-2" offset="1" style="stop-color:#655961;stop-opacity:1"/></linearGradient><linearGradient id="linearGradient4128" x1="259.961" x2="259.961" y1="51.961" y2="460.175" gradientUnits="userSpaceOnUse" xlink:href="#linearGradient4336-3"/><clipPath id="clipPath4147" clipPathUnits="userSpaceOnUse"><rect style="fill:url(#linearGradient4151);fill-opacity:1;stroke:none;display:inline" id="rect4149" width="327.758" height="327.758" x="92.121" y="89.758" rx="78.788" ry="78.788"/></clipPath><linearGradient id="linearGradient4151" x1="259.961" x2="259.961" y1="51.961" y2="460.175" gradientTransform="matrix(0.78787877,0,0,0.78787877,54.303035,51.939395)" gradientUnits="userSpaceOnUse" xlink:href="#linearGradient4336-3"/><linearGradient id="linearGradient4081-57" x1="256" x2="256" y1="176" y2="336" gradientUnits="userSpaceOnUse" xlink:href="#linearGradient3919-9"/><linearGradient id="linearGradient3919-9"><stop id="stop3921-6" offset="0" style="stop-color:#00a0a0;stop-opacity:1"/><stop id="stop3923-9" offset="1" style="stop-color:#11e0ff;stop-opacity:1"/></linearGradient><filter id="filter4206"><feGaussianBlur id="feGaussianBlur4208" stdDeviation="3.201"/></filter><linearGradient id="linearGradient4212" x1="256" x2="256" y1="176" y2="336" gradientTransform="matrix(1.1179675,0,0,1.1179675,-30.170115,-28.19968)" gradientUnits="userSpaceOnUse" xlink:href="#linearGradient4031-59"/><linearGradient id="linearGradient4081-7" x1="256" x2="256" y1="176" y2="336" gradientUnits="userSpaceOnUse" xlink:href="#linearGradient3919-25"/><linearGradient id="linearGradient3919-25"><stop id="stop3921-54" offset="0" style="stop-color:#00a0a0;stop-opacity:1"/><stop id="stop3923-7" offset="1" style="stop-color:#11e0ff;stop-opacity:1"/></linearGradient><clipPath id="clipPath4174-8" clipPathUnits="userSpaceOnUse"><path style="fill:url(#linearGradient4178);fill-opacity:1;stroke:none" id="path4176-3" d="m 256,176 c -44.18278,0 -80,35.64044 -80,80 0,0 -0.53033,7.51472 1.76777,16 l 122.85723,0 c -3.3167,9.26456 -9.26562,17.57666 -17.34375,23.125 -18.58481,14.67263 -46.73117,9.33733 -62.5625,-7.125 l -38.03125,0 c 12.35038,28.24167 40.51668,48 73.3125,48 44.18278,0 80,-35.81722 80,-80 0,0 0,-8.22183 -1.59099,-16 L 211.5,240 c 6.91612,-17.48162 23.43148,-31.64803 42.625,-31.8125 0.96047,-0.0463 1.91732,-0.0507 2.875,-0.0312 12.86627,0.2609 25.35078,6.36236 34.03125,15.84375 l 38.28125,0 C 316.96212,195.75833 288.79582,176 256,176 z"/></clipPath><linearGradient id="linearGradient4231" x1="256" x2="256" y1="176" y2="336" gradientUnits="userSpaceOnUse" xlink:href="#linearGradient3919-25"/><clipPath id="clipPath4254" clipPathUnits="userSpaceOnUse"><path style="fill:url(#linearGradient4258);fill-opacity:1;stroke:none;display:inline" id="path4256" d="m 256,176 c -44.18278,0 -80,35.64044 -80,80 0,0 -0.53033,7.51472 1.76777,16 l 122.85723,0 c -3.3167,9.26456 -9.26562,17.57666 -17.34375,23.125 -18.58481,14.67263 -46.73117,9.33733 -62.5625,-7.125 l -38.03125,0 c 12.35038,28.24167 40.51668,48 73.3125,48 44.18278,0 80,-35.81722 80,-80 0,0 0,-8.22183 -1.59099,-16 L 211.5,240 c 6.91612,-17.48162 23.43148,-31.64803 42.625,-31.8125 0.96047,-0.0463 1.91732,-0.0507 2.875,-0.0312 12.86627,0.2609 25.35078,6.36236 34.03125,15.84375 l 38.28125,0 C 316.96212,195.75833 288.79582,176 256,176 z" clip-path="url(#clipPath4174-8)" transform="translate(0,-1.7889608)"/></clipPath><linearGradient id="linearGradient4258" x1="256" x2="256" y1="176" y2="336" gradientUnits="userSpaceOnUse" xlink:href="#linearGradient3919-25"/><clipPath id="clipPath4260" clipPathUnits="userSpaceOnUse"><path style="fill:url(#linearGradient4264);fill-opacity:1;stroke:none;display:inline" id="path4262" d="m 256,176 c -44.18278,0 -80,35.64044 -80,80 0,0 -0.53033,7.51472 1.76777,16 l 122.85723,0 c -3.3167,9.26456 -9.26562,17.57666 -17.34375,23.125 -18.58481,14.67263 -46.73117,9.33733 -62.5625,-7.125 l -38.03125,0 c 12.35038,28.24167 40.51668,48 73.3125,48 44.18278,0 80,-35.81722 80,-80 0,0 0,-8.22183 -1.59099,-16 L 211.5,240 c 6.91612,-17.48162 23.43148,-31.64803 42.625,-31.8125 0.96047,-0.0463 1.91732,-0.0507 2.875,-0.0312 12.86627,0.2609 25.35078,6.36236 34.03125,15.84375 l 38.28125,0 C 316.96212,195.75833 288.79582,176 256,176 z" clip-path="url(#clipPath4174-8)" transform="translate(2.6834412e-6,0)"/></clipPath><linearGradient id="linearGradient4264" x1="256" x2="256" y1="176" y2="336" gradientUnits="userSpaceOnUse" xlink:href="#linearGradient3919-25"/><linearGradient id="linearGradient4081-2" x1="256" x2="256" y1="176" y2="336" gradientUnits="userSpaceOnUse" xlink:href="#linearGradient3919-6"/><linearGradient id="linearGradient3919-6"><stop id="stop3921-2" offset="0" style="stop-color:#00a0a0;stop-opacity:1"/><stop id="stop3923-93" offset="1" style="stop-color:#11e0ff;stop-opacity:1"/></linearGradient><clipPath id="clipPath4260-0" clipPathUnits="userSpaceOnUse"><path style="fill:url(#linearGradient4264);fill-opacity:1;stroke:none;display:inline" id="path4262-8" d="m 256,176 c -44.18278,0 -80,35.64044 -80,80 0,0 -0.53033,7.51472 1.76777,16 l 122.85723,0 c -3.3167,9.26456 -9.26562,17.57666 -17.34375,23.125 -18.58481,14.67263 -46.73117,9.33733 -62.5625,-7.125 l -38.03125,0 c 12.35038,28.24167 40.51668,48 73.3125,48 44.18278,0 80,-35.81722 80,-80 0,0 0,-8.22183 -1.59099,-16 L 211.5,240 c 6.91612,-17.48162 23.43148,-31.64803 42.625,-31.8125 0.96047,-0.0463 1.91732,-0.0507 2.875,-0.0312 12.86627,0.2609 25.35078,6.36236 34.03125,15.84375 l 38.28125,0 C 316.96212,195.75833 288.79582,176 256,176 z" clip-path="url(#clipPath4174-8)" transform="translate(2.6834412e-6,0)"/></clipPath></defs><metadata id="metadata3086"/><g id="layer9"><rect style="fill:url(#radialGradient4207);fill-opacity:1;stroke:none" id="rect3103-7" width="470.943" height="470.943" x="20.528" y="16" rx="113.208" ry="113.208"/></g><g id="layer1" transform="translate(0,-540.36218)"><rect style="fill:#aa9ea4;fill-opacity:1;stroke:none" id="rect3103" width="470.943" height="470.943" x="20.528" y="565.419" rx="113.208" ry="113.208"/></g><g id="layer2" style="display:inline"><rect style="fill:url(#radialGradient4046);fill-opacity:1;stroke:none" id="rect3103-6" width="470.943" height="470.943" x="20.528" y="25.057" rx="113.208" ry="113.208"/></g><g id="layer3" style="display:inline"><rect style="fill:url(#radialGradient4073);fill-opacity:1;stroke:none" id="rect3103-9" width="470.943" height="470.943" x="20.528" y="25.057" rx="113.208" ry="113.208"/></g><g id="layer11"><rect style="opacity:.48927038;fill:url(#linearGradient4334);fill-opacity:1;stroke:none;display:inline" id="rect3103-9-9" width="470.943" height="470.943" x="20.528" y="25.057" rx="113.208" ry="113.208"/></g><g id="layer7" style="display:inline"><path style="fill:#fff;fill-opacity:.54123709;stroke:none" id="path3214-6" d="M 240,92.121216 240,129 c -52.45501,6.5377 -95.05053,44.80985 -107.96875,95 l 33.1875,0 c 13.61057,-36.22794 49.64746,-64.48252 89.03125,-64.21875 0.95497,-0.0253 1.92176,-0.0369 2.875,-0.0312 14.29865,0.0853 28.35374,3.63533 41.09375,10 22.94737,10.32987 39.98645,30.74431 48.3125,54.25 l 33.4375,0 C 367.05053,173.80985 324.45501,135.5377 272,129 l 0,-36.878784 z M 132.03125,288 C 144.94947,338.19015 187.54499,376.4623 240,383 l 0,36.87878 32,0 L 272,383 c 52.45501,-6.5377 95.05053,-44.80985 107.96875,-95 L 347,288 c -12.9362,38.16182 -52.91943,65.60507 -93.34375,64.1875 -39.35846,0.19888 -75.06281,-27.91764 -88.375,-64.1875 z" clip-path="url(#clipPath4147)" transform="matrix(1.4368651,0,0,1.4368651,-111.83745,-103.91294)"/></g><g id="layer5" style="display:inline"><path style="fill:url(#linearGradient4038);fill-opacity:1;stroke:none" id="path3214" d="M 240,92.121216 240,129 c -52.45501,6.5377 -95.05053,44.80985 -107.96875,95 l 33.1875,0 c 13.61057,-36.22794 49.64746,-64.48252 89.03125,-64.21875 0.95497,-0.0253 1.92176,-0.0369 2.875,-0.0312 14.29865,0.0853 28.35374,3.63533 41.09375,10 22.94737,10.32987 39.98645,30.74431 48.3125,54.25 l 33.4375,0 C 367.05053,173.80985 324.45501,135.5377 272,129 l 0,-36.878784 z M 132.03125,288 C 144.94947,338.19015 187.54499,376.4623 240,383 l 0,36.87878 32,0 L 272,383 c 52.45501,-6.5377 95.05053,-44.80985 107.96875,-95 L 347,288 c -12.9362,38.16182 -52.91943,65.60507 -93.34375,64.1875 -39.35846,0.19888 -75.06281,-27.91764 -88.375,-64.1875 z" clip-path="url(#clipPath4063)" transform="matrix(1.4368651,0,0,1.4368651,-111.83745,-107.30917)"/></g><g id="layer6" style="display:inline"><path style="fill:none;stroke:#000;stroke-width:7.87878752;stroke-linecap:round;stroke-linejoin:round;stroke-miterlimit:4;stroke-opacity:.58247423;stroke-dasharray:none;filter:url(#filter4013)" id="path3214-1" d="M 240,92.121216 240,129 c -52.45501,6.5377 -95.05053,44.80985 -107.96875,95 l 33.1875,0 c 13.61057,-36.22794 49.64746,-64.48252 89.03125,-64.21875 0.95497,-0.0253 1.92176,-0.0369 2.875,-0.0312 14.29865,0.0853 28.35374,3.63533 41.09375,10 22.94737,10.32987 39.98645,30.74431 48.3125,54.25 l 33.4375,0 C 367.05053,173.80985 324.45501,135.5377 272,129 l 0,-36.878784 z M 132.03125,288 C 144.94947,338.19015 187.54499,376.4623 240,383 l 0,36.87878 32,0 L 272,383 c 52.45501,-6.5377 95.05053,-44.80985 107.96875,-95 L 347,288 c -12.9362,38.16182 -52.91943,65.60507 -93.34375,64.1875 -39.35846,0.19888 -75.06281,-27.91764 -88.375,-64.1875 z" clip-path="url(#clipPath4057)" transform="matrix(1.4368651,0,0,1.4368651,-111.83745,-103.91341)"/></g><g id="layer12"><path style="fill:#fff;fill-opacity:.54123709;stroke:none;display:inline" id="path4189-9" d="m 256,176 c -44.18278,0 -80,35.64044 -80,80 0,0 -0.53033,7.51472 1.76777,16 l 122.85723,0 c -3.3167,9.26456 -9.26562,17.57666 -17.34375,23.125 -18.58481,14.67263 -46.73117,9.33733 -62.5625,-7.125 l -38.03125,0 c 12.35038,28.24167 40.51668,48 73.3125,48 44.18278,0 80,-35.81722 80,-80 0,0 0,-8.22183 -1.59099,-16 L 211.5,240 c 6.91612,-17.48162 23.43148,-31.64803 42.625,-31.8125 0.96047,-0.0463 1.91732,-0.0507 2.875,-0.0312 12.86627,0.2609 25.35078,6.36236 34.03125,15.84375 l 38.28125,0 C 316.96212,195.75833 288.79582,176 256,176 z" clip-path="url(#clipPath4260-0)" transform="matrix(1.2656236,0,0,1.2656236,-67.966171,-61.207205)"/></g><g id="layer8" style="display:inline"><path style="fill:url(#linearGradient4081);fill-opacity:1;stroke:none" id="path4189" d="m 256,176 c -44.18278,0 -80,35.64044 -80,80 0,0 -0.53033,7.51472 1.76777,16 l 122.85723,0 c -3.3167,9.26456 -9.26562,17.57666 -17.34375,23.125 -18.58481,14.67263 -46.73117,9.33733 -62.5625,-7.125 l -38.03125,0 c 12.35038,28.24167 40.51668,48 73.3125,48 44.18278,0 80,-35.81722 80,-80 0,0 0,-8.22183 -1.59099,-16 L 211.5,240 c 6.91612,-17.48162 23.43148,-31.64803 42.625,-31.8125 0.96047,-0.0463 1.91732,-0.0507 2.875,-0.0312 12.86627,0.2609 25.35078,6.36236 34.03125,15.84375 l 38.28125,0 C 316.96212,195.75833 288.79582,176 256,176 z" clip-path="url(#clipPath4260)" transform="matrix(1.2656236,0,0,1.2656236,-67.966171,-63.471355)"/></g><g id="layer10"><path style="fill:none;stroke:#000;stroke-width:6.26136255;stroke-linecap:round;stroke-linejoin:round;stroke-miterlimit:4;stroke-opacity:.63402064;stroke-dasharray:none;display:inline;filter:url(#filter4206)" id="path4189-8" d="m 256,176 c -44.18278,0 -80,35.64044 -80,80 0,0 -0.53033,7.51472 1.76777,16 l 122.85723,0 c -3.3167,9.26456 -9.26562,17.57666 -17.34375,23.125 -18.58481,14.67263 -46.73117,9.33733 -62.5625,-7.125 l -38.03125,0 c 12.35038,28.24167 40.51668,48 73.3125,48 44.18278,0 80,-35.81722 80,-80 0,0 0,-8.22183 -1.59099,-16 L 211.5,240 c 6.91612,-17.48162 23.43148,-31.64803 42.625,-31.8125 0.96047,-0.0463 1.91732,-0.0507 2.875,-0.0312 12.86627,0.2609 25.35078,6.36236 34.03125,15.84375 l 38.28125,0 C 316.96212,195.75833 288.79582,176 256,176 z" clip-path="url(#clipPath4254)" transform="matrix(1.2656236,0,0,1.2656236,-67.966167,-61.207205)"/></g></svg>